<?xml version="1.0" encoding="UTF-8"?>
<svg xmlns="http://www.w3.org/2000/svg" version="1.1" viewBox="0 0 39.7 39.7">
  <defs>
    <style>
      .cls-1 {
        fill: #fcfcfc;
      }
    </style>
  </defs>
  <!-- Generator: Adobe Illustrator 28.7.0, SVG Export Plug-In . SVG Version: 1.2.0 Build 136)  -->
  <g>
    <g id="a">
      <circle class="cls-1" cx="19.8" cy="19.8" r="19.8"/>
      <path d="M26.8,30.5c.2.5-.1,1.1-.6,1.3s-1.1-.1-1.3-.6l-1-3c-.2-.5.1-1.1.6-1.3s1.1.1,1.3.6l1,3ZM19.8,26.8c-.5,0-1,.5-1,1v4c0,.5.5,1,1,1s1-.5,1-1v-4c0-.5-.5-1-1-1ZM15.2,26.9c-.5-.2-1.1.1-1.3.6h0l-1,3c-.2.5.1,1.1.6,1.3.5.2,1.1-.1,1.3-.6l1-3c.2-.5-.1-1.1-.6-1.3h0ZM34.8,17.8c0,2-1.7,3.9-4.7,5.2-2.8,1.2-6.4,1.8-10.3,1.8s-7.5-.6-10.3-1.8c-3-1.3-4.7-3.1-4.7-5.2s.5-2.6,2.7-4.1c1.4-.9,3.4-1.7,5.7-2.2,2.3-3.7,7.3-4.8,11-2.5.5.3,1,.7,1.4,1.1s.8.9,1.1,1.4c5.2,1.2,8.2,3.5,8.2,6.3h0ZM13.8,15.9v.4c0,.5.3.9.8,1,1.7.4,3.5.6,5.2.5,1.8,0,3.5-.2,5.2-.5.5-.1.8-.5.8-1v-.5c0-3.3-2.7-6-6-6h0c-3.3,0-5.9,2.8-5.9,6.1ZM32.8,17.8c0-1.5-2.1-3-5.2-3.9.2.6.2,1.3.2,1.9v.5c0,1.4-1,2.6-2.3,2.9-1.9.4-3.8.6-5.7.6-1.9,0-3.8-.2-5.7-.6-1.4-.3-2.3-1.5-2.3-2.9h0v-.4c0-.7,0-1.4.3-2.1-3.2,1-5.3,2.5-5.3,4,0,2.4,5.3,5,13,5s13-2.6,13-5Z"/>
    </g>
  </g>
</svg>