<?xml version="1.0" encoding="UTF-8"?>
<svg id="a" data-name="Ebene_1" xmlns="http://www.w3.org/2000/svg" viewBox="0 0 39.69 39.69">
  <defs>
    <style>
      .b {
        fill: #fcfcfc;
      }
    </style>
  </defs>
  <circle class="b" cx="19.84" cy="19.84" r="19.84"/>
  <path d="M26.79,30.53c.17.52-.11,1.09-.63,1.26s-1.09-.11-1.26-.63l-1-3c-.17-.52.11-1.09.63-1.26s1.09.11,1.26.63l1,3ZM19.84,26.84c-.55,0-1,.45-1,1v4c0,.55.45,1,1,1s1-.45,1-1v-4c0-.55-.45-1-1-1ZM15.16,26.9c-.52-.17-1.09.11-1.26.63,0,0,0,0,0,0l-1,3c-.17.52.11,1.09.63,1.26.52.17,1.09-.11,1.27-.63l1-3c.17-.52-.11-1.09-.63-1.26,0,0,0,0,0,0ZM34.84,17.84c0,2.03-1.67,3.86-4.71,5.16-2.77,1.19-6.42,1.84-10.29,1.84s-7.53-.65-10.29-1.84c-3.04-1.3-4.71-3.13-4.71-5.16,0-1.05.46-2.6,2.65-4.06,1.42-.95,3.37-1.72,5.65-2.23,2.34-3.72,7.26-4.83,10.97-2.48.49.31.95.67,1.36,1.08.43.43.81.9,1.14,1.41,5.16,1.17,8.24,3.5,8.24,6.28ZM13.84,15.95v.38c0,.46.32.87.77.97,1.72.38,3.47.56,5.23.55,1.76.01,3.51-.17,5.23-.55.45-.1.77-.51.77-.97v-.48c0-3.31-2.69-6-6-6-.03,0-.05,0-.08,0-3.26.04-5.92,2.78-5.92,6.1ZM32.84,17.84c0-1.46-2.08-2.99-5.24-3.95.16.64.24,1.29.24,1.95v.49c0,1.39-.96,2.6-2.32,2.91-1.86.41-3.77.61-5.68.6-1.91.01-3.81-.19-5.68-.6-1.36-.31-2.32-1.52-2.32-2.91h0v-.38c0-.7.09-1.39.27-2.07-3.18.96-5.27,2.49-5.27,3.96,0,2.36,5.34,5,13,5s13-2.64,13-5Z"/>
</svg>