<?xml version="1.0" encoding="UTF-8"?>
<svg xmlns="http://www.w3.org/2000/svg" version="1.1" viewBox="0 0 634.3 117.6">
  <defs>
    <style>
      .cls-1 {
        fill: #023c40;
      }
    </style>
  </defs>
  <!-- Generator: Adobe Illustrator 28.7.0, SVG Export Plug-In . SVG Version: 1.2.0 Build 136)  -->
  <g>
    <g id="a">
      <g id="b">
        <path class="cls-1" d="M35,26.2c-10.7,0-19,4.9-22.9,11.5h-.4c.1-1.7.2-3.2.2-6v-3.6H0v89.5h13v-30.1c0-3.2-.1-4.8-.4-6h.4c3.1,6.2,11.6,10.4,21.5,10.4,18.2,0,31.4-13.7,31.4-32.9s-13-32.9-30.8-32.9ZM32.6,80.3c-11.8,0-20.2-8.9-20.2-21.4s8.6-21.4,20.2-21.4,20.2,8.9,20.2,21.4-8.4,21.4-20.2,21.4Z"/>
        <path class="cls-1" d="M128.9,28.1v3.5c0,3.2.1,4.8.2,6.1h-.4c-3-6.2-11-11.5-22.1-11.5-18.5,0-31.7,13.8-31.7,32.9s12.5,32.9,31.2,32.9,19.3-5.3,22.6-12.6h.4c-.1,1.7-.2,3.5-.2,6.2v4.4h11.9V28.1h-11.9ZM108.2,80.3c-11.5,0-20.2-8.9-20.2-21.4s8.4-21.4,20.2-21.4,20.2,8.9,20.2,21.4-8.6,21.4-20.2,21.4Z"/>
        <polygon class="cls-1" points="160.9 39.4 154.3 39.4 154.3 28.1 160.9 28.1 160.9 12 173.9 12 173.9 28.1 190.7 28.1 190.7 39.4 173.9 39.4 173.9 78.6 188.9 78.6 188.9 90 160.9 90 160.9 39.4 160.9 39.4"/>
        <path class="cls-1" d="M286.8,90h-13v-40.6c0-7-4.9-11.9-11.8-11.9s-11.5,4.9-11.5,11.9v40.6h-13v-40.6c0-7-4.8-11.9-11.6-11.9s-11.5,4.9-11.5,11.9v40.6h-13v-40.4c0-13.8,10.6-23.4,24.4-23.4s14.5,3.4,18.5,9c4.1-5.6,10.4-9,18.5-9,14,0,24,9.6,24,23.4v40.4h0Z"/>
        <path class="cls-1" d="M353.4,28.1v3.5c0,3.2.1,4.8.2,6.1h-.4c-3-6.2-11-11.5-22.1-11.5-18.5,0-31.7,13.8-31.7,32.9s12.5,32.9,31.2,32.9,19.3-5.3,22.6-12.6h.4c-.1,1.7-.2,3.5-.2,6.2v4.4h11.9V28.1h-11.9ZM332.8,80.3c-11.5,0-20.2-8.9-20.2-21.4s8.4-21.4,20.2-21.4,20.2,8.9,20.2,21.4-8.6,21.4-20.2,21.4Z"/>
        <path class="cls-1" d="M441.8,59c0-19-11.5-32.9-30.5-32.9s-32.8,14-32.8,32.9,13.8,32.9,33,32.9,19.2-4.1,25.3-12.2l-7.6-7.8c-4.4,5.6-10,8.4-17.6,8.4s-17.9-6.4-19.6-16.6h49.3c.2-1.2.4-3.2.4-4.7h0ZM392.1,54.4c1.7-10.2,9-16.8,19-16.8s16.9,7,17.9,16.8h-36.8Z"/>
        <path class="cls-1" d="M503.4,0v30.2c0,3.4.1,4.8.4,6.1h-.5c-3.5-6.4-12.2-10.2-21.4-10.2-18.6,0-31.4,13.7-31.4,32.9s12.5,32.9,31,32.9,18.7-4.3,22.8-12.1h.4c-.1,1.6-.2,3.5-.2,6.2v4h11.9V0h-12.8,0ZM483.7,80.3c-11.5,0-20.2-8.9-20.2-21.4s8.4-21.4,20.2-21.4,20.2,8.9,20.2,21.4-8.6,21.4-20.2,21.4Z"/>
        <path class="cls-1" d="M592.8,59c0-19-11.5-32.9-30.5-32.9s-32.8,14-32.8,32.9,13.8,32.9,33,32.9,19.2-4.1,25.3-12.2l-7.6-7.8c-4.4,5.6-10,8.4-17.6,8.4s-17.9-6.4-19.6-16.6h49.3c.2-1.2.4-3.2.4-4.7ZM543.1,54.4c1.7-10.2,9-16.8,19-16.8s16.9,7,17.9,16.8h-36.8Z"/>
        <polygon class="cls-1" points="634.3 28.1 634.3 39.6 618.6 39.6 618.6 90 605.6 90 605.6 28.1 634.3 28.1"/>
      </g>
    </g>
  </g>
</svg>